<?xml version="1.0" encoding="UTF-8"?>
<svg width="100%" version="1.1" viewBox="0 0 200 40.682152" xmlns="http://www.w3.org/2000/svg">
 <path d="m31.212 9.2322c-3.9966 4.017-7.764 6.1952-11.192 6.4548-2.637 0.19857-5.4327-0.5865-8.3032-2.3376-2.3743-1.447-4.2057-3.1762-5.3022-4.2082l-0.11145-0.1051h-7e-4 7e-4c1.9581-2.096 4.4466-3.6404 7.2166-4.4741 0-1e-3 0-1e-3 7.1e-4 -2e-3l2e-3 7.1e-4c-7e-4 0-2e-3 1e-3 -2e-3 1e-3 -0.29519 1.0842-0.34809 2.2455-0.16576 3.4066 0.32729 2.0826 1.3991 3.9225 2.9428 5.0451 1.2069 0.87888 2.6211 1.2467 3.9825 1.032 1.3589-0.21373 2.5936-0.99703 3.4722-2.2039 1.125-1.5426 1.5811-3.622 1.2534-5.7046-0.06-0.38301-0.14672-0.76074-0.2571-1.1296l7e-4 1e-3c1.9976 0.76074 3.8453 1.8738 5.4818 3.2993 0.33293 0.29061 0.66198 0.60062 0.98257 0.92332zm-18.855 16.131c-0.41511 2.449-0.98363 5.7928-0.47189 10.847l-2e-3 -2e-3c-1.3451-0.68173-2.6176-1.5331-3.761-2.5294-3.1177-2.716-5.2254-6.4132-5.9321-10.407-0.68174-3.8386-0.0434-7.7516 1.7937-11.055h-1e-3l1e-3 -7e-4v7e-4c0.69973 0.73147 1.5455 1.5716 2.4318 2.4504 2.169 2.1489 4.6276 4.5856 5.8231 6.3183 0.69267 1.0037 0.47682 2.2734 0.11815 4.3778m23.074-15.382c1.6826-1.9874 2.4279-2.9061 2.2663-3.4073-0.12272-0.37561-0.51456-0.70678-1.1039-0.93073-0.63412-0.24018-1.5031-0.35093-1.9401-0.0945-0.14566 0.085-0.38232 0.35198-0.95154 0.99597l-0.53149 0.59956h-2e-3c-0.33858-0.34598-0.69972-0.69055-1.0535-0.99774-2.5721-2.2427-5.7268-3.7042-9.1235-4.2322-1.3688-1.4548-3.1544-2.1302-4.9115-1.8548-1.4746 0.23241-2.7742 1.1131-3.6644 2.4829-3.4524 1.051-6.5786 3.0317-9.0541 5.7371v-2e-3c-0.55337-0.16541-1.7673 0.0494-2.5263 0.46554-0.43732 0.23947-0.68702 0.51739-0.74169 0.82845-0.042 0.2356 0.0536 0.6045 0.99951 1.6837l-7.1e-4 1e-3c-2.431 3.8735-3.4849 8.4573-2.9601 12.911 0.53854 4.5676 2.7072 8.7127 6.106 11.677 1.2058 1.0492 2.5284 1.9253 3.9511 2.618 2.0523 0.9988 4.3182 1.6961 6.7394 2.0205 5.0846 0.67821 9.9975-0.40664 14.021-2.7541l7e-3 -6e-3c0.51279-0.28461 0.69901-0.90887 0.4419-1.4876l-0.0765-0.17317c-1.0453-2.3429-4.2262-9.4727-2.4547-15.978 0.74063-2.7224 2.8775-5.6218 4.7238-7.8966h1e-3c1.9655 3.0525 2.9699 6.6837 2.8243 10.249-0.1379 3.3798-1.2513 6.5239-3.233 9.1648-0.0607 0.0741-0.0928 0.16822-0.0861 0.2705 3e-3 0.0427 0.0123 0.0832 0.0282 0.12026l0.20172 0.47013c0.0652 0.13966 0.21268 0.23383 0.37633 0.22254 0.10968-9e-3 0.20843-0.0617 0.27156-0.14107 5.2211-6.6216 5.8468-15.735 1.4559-22.562" fill="#da291c"/>
 <path d="m77.544 17.99h-3.0067l-1.9342 4.9613-1.9137-4.9613h-2.7641l3.826 9.0085h1.731zm89.42 6.5492c-0.58758 0.52444-1.0761 0.73923-1.6788 0.73923-1.3311 0-2.1652-1.0905-2.1652-2.7306 0-1.7959 0.83412-2.8335 2.2629-2.8335 0.50506 0 1.1685 0.23772 1.5811 0.52411zm2.8304-10.859h-2.8304v4.7042c-0.76252-0.36574-1.5219-0.56184-2.3479-0.56184-2.5747 0-4.3713 1.912-4.3713 4.6679 0 2.6942 1.7966 4.6859 4.2193 4.6859 0.95545 0 1.6965-0.25323 2.4999-0.89831v0.7202h2.8304zm26.902 4.1526c-1.1096 0-2.0692 0.46767-2.8889 1.5028v-1.3388h-2.8304v9.0117h2.8304v-5.3666c0-0.75971 0.589-1.742 1.8943-1.742 0.8782 0 1.4633 0.6285 1.4633 1.9744v5.1342h2.8353v-5.7383c0-2.4442-1.6608-3.4373-3.304-3.4373m-9.9876 3.6405c-0.1178-1.2351-0.85846-1.9684-1.9514-1.9684-1.1117 0-1.835 0.71879-1.9514 1.9684zm2.5027 1.4848h-6.4649c0.0998 1.6012 1.1903 2.5404 2.9662 2.5404 1.1339 0 2.0135-0.33224 3.3414-1.2887v1.7751c-1.6206 1.1914-3.321 1.1914-4.0249 1.1914-3.1622 0-5.2118-1.8333-5.2118-4.6506 0-2.751 1.9694-4.7032 4.7427-4.7032 2.6184 0 4.785 1.8548 4.6513 5.1356m-14.491-4.9613h-2.8293v9.0014h2.8293v-3.9593c0-1.6756 0.87398-2.5584 2.3281-2.5584 0.4458 0 0.93217 0.19152 1.6767 0.65778l0.78194-2.4971c-0.81825-0.60346-1.3088-0.8186-1.8728-0.8186-0.9089 0-2.2237 0.50505-2.914 2.253zm-16.747-4.3166h-2.83v9.7685c0 1.7734 0.48778 3.6289 3.4374 3.7276l0.89901-2.0509c-1.2104-0.23207-1.5064-0.78086-1.5064-2.1486zm-5.004 4.3166h-2.8297v9.0011h2.8297zm-1.4252-4.4923c-0.85915 0-1.5624 0.70116-1.5624 1.5607 0 0.86164 0.70327 1.5646 1.5624 1.5646 0.85987 0 1.5596-0.70291 1.5596-1.5646 0-0.85951-0.69975-1.5607-1.5596-1.5607m-96.206 1.0352c-1.6799-0.72337-3.0272-1.0352-4.5138-1.0352-3.0843 0-5.0763 1.5258-5.0763 3.8274 0 4.7836 6.7749 3.9872 6.7749 6.175 0 0.77663-0.68 1.2267-1.95 1.2267-1.4679 0-2.6385-0.45003-4.5494-1.7187v2.8727c1.3272 0.6807 2.4798 1.2887 4.8009 1.2887 2.9721 0 5.1193-1.4845 5.1193-4.0408 0-4.6524-6.7763-4.0845-6.7763-6.0977 0-0.65812 0.75935-1.0905 1.9508-1.0905 1.1364 0 2.2837 0.33082 4.22 1.19zm86.746-0.8595h-2.8307v13.318h2.8307v-5.331c0-0.82918 0.589-1.7776 1.8943-1.7776 0.87821 0 1.463 0.6285 1.463 1.9747v5.1338h2.836v-5.7383c0-2.4445-1.6616-3.4374-3.3044-3.4374-1.1089 0-2.0693 0.46766-2.8889 1.5032zm-39.34 0h-2.8311v13.318h2.8311v-5.331c0-0.82918 0.589-1.7776 1.8936-1.7776 0.87892 0 1.4637 0.6285 1.4637 1.9747v5.1338h2.836v-5.7383c0-2.4445-1.6615-3.4374-3.3044-3.4374-1.1089 0-2.0692 0.46766-2.8889 1.5032zm14.615 7.7931c-0.11851-1.2351-0.86093-1.9684-1.9564-1.9684-1.1096 0-1.8351 0.71879-1.9514 1.9684zm2.4992 1.4848h-6.4656c0.0977 1.6012 1.1917 2.5404 2.9676 2.5404 1.1346 0 2.0142-0.33224 3.3439-1.2887v1.7751c-1.6245 1.1914-3.3224 1.1914-4.0271 1.1914-3.1633 0-5.2121-1.8333-5.2121-4.6506 0-2.751 1.9723-4.7032 4.7437-4.7032 2.6174 0 4.7875 1.8548 4.6496 5.1356m-35.193-1.4915c-0.11745-1.2358-0.86198-1.9687-1.9529-1.9687-1.1163 0-1.8347 0.71878-1.9557 1.9687zm2.3842 1.4845h-6.4663c0.0981 1.6009 1.191 2.5404 2.9714 2.5404 1.1311 0 2.009-0.33223 3.3361-1.2891v1.7755c-1.621 1.1914-3.3192 1.1914-4.0228 1.1914-3.1622 0-5.2124-1.8337-5.2124-4.651 0-2.7503 1.9701-4.7028 4.7455-4.7028 2.618 0 4.7853 1.8552 4.6485 5.1356m-23.071-2.7344c-0.33012-0.19433-0.86023-0.51-1.6421-0.51-1.6002 0-2.1472 1.7003-2.1472 2.9908 0 1.1917 0.62603 2.4396 2.2026 2.4396 0.84294 0 1.2739-0.35234 1.5868-0.60487zm4.0218 5.6057-2.0139 1.3469c-0.87398-0.17847-1.4626-0.64402-1.7596-1.1117-0.52304 0.48743-1.2263 1.1117-2.6716 1.1117-3.0444 0-4.2732-2.7126-4.2732-4.6683 0-2.1652 1.324-4.6855 4.3512-4.6855 1.2083 0 1.9328 0.37208 2.3627 0.60804v-0.43381h2.812v5.8773c0 0.8246 0.15765 1.7377 1.1925 1.9553m69.093-2.884c-1.9148 0.91946-3.0854 1.4633-4.822 1.4633-2.7725 0-4.7487-1.6972-4.7487-4.081 0-2.3616 1.9955-4.0426 4.8252-4.0426 1.6397 0 3.1235 0.54914 4.5907 1.366v-2.9658c-1.3088-0.78333-2.9704-1.1738-4.8249-1.1738-5.0975 0-8.0107 3.3227-8.0107 6.8744 0 3.4384 2.5814 6.7975 7.7586 6.7975 1.9723 0 3.3756-0.36892 5.2319-1.3293zm-38.724-3.0095h-3.2793v3.71c0 0.88138 0.50965 1.4478 1.3864 1.4478 0.58442 0 1.1325-0.13685 1.8929-0.52728v2.0481c-0.9953 0.40983-1.7381 0.56889-2.6142 0.56889-1.8753 0-3.4959-0.85952-3.4959-3.3788v-3.8687h-1.2877v-0.54561l3.7661-4.215h0.35234v2.8286h3.2793z"/>
</svg>
