<?xml version="1.0" standalone="no"?>
<!DOCTYPE svg PUBLIC "-//W3C//DTD SVG 20010904//EN"
 "http://www.w3.org/TR/2001/REC-SVG-20010904/DTD/svg10.dtd">
<svg version="1.0" xmlns="http://www.w3.org/2000/svg"
 width="604.000000pt" height="604.000000pt" viewBox="0 0 604.000000 604.000000"
 preserveAspectRatio="xMidYMid meet">
<metadata>
Created by potrace 1.11, written by Peter Selinger 2001-2013
</metadata>
<g transform="translate(0.000000,604.000000) scale(0.100000,-0.100000)"
fill="#000000" stroke="none">
<path d="M2845 6029 c-195 -43 -357 -140 -466 -280 -19 -24 -39 -49 -46 -56
-6 -7 -13 -17 -15 -21 -1 -5 -47 -24 -102 -42 -54 -18 -110 -39 -125 -46 -14
-8 -29 -14 -33 -14 -4 0 -37 -13 -73 -30 -36 -16 -67 -30 -70 -30 -5 0 -106
-53 -201 -105 -126 -70 -297 -187 -419 -286 -105 -86 -122 -101 -227 -205
l-96 -96 -89 -3 c-48 -2 -97 -6 -108 -9 -11 -3 -44 -12 -73 -20 -103 -28 -203
-99 -217 -154 -10 -39 14 -100 60 -157 25 -30 45 -59 45 -65 0 -5 4 -10 10
-10 5 0 13 -8 19 -17 7 -14 -4 -39 -45 -108 -29 -49 -53 -96 -54 -102 0 -7 -4
-13 -10 -13 -5 0 -10 -4 -10 -9 0 -4 -21 -53 -47 -107 -26 -54 -48 -104 -49
-110 -1 -6 -9 -27 -17 -45 -9 -19 -23 -54 -32 -79 -8 -25 -25 -72 -36 -105
-28 -79 -65 -216 -83 -305 -3 -14 -8 -36 -11 -50 -9 -40 -16 -82 -21 -125 -3
-22 -7 -51 -9 -65 -27 -185 -27 -617 0 -755 3 -11 7 -38 10 -60 10 -69 45
-237 62 -295 9 -30 18 -59 19 -65 19 -98 182 -477 252 -587 9 -14 31 -50 48
-80 49 -83 154 -225 244 -332 84 -98 320 -323 369 -350 9 -5 18 -12 21 -16 12
-17 173 -127 270 -184 108 -65 259 -140 352 -177 29 -11 67 -27 83 -34 59 -26
248 -86 378 -120 132 -34 151 -38 236 -52 25 -4 48 -8 51 -8 3 -1 30 -5 60 -9
30 -5 63 -10 72 -11 139 -26 673 -26 818 0 14 2 42 7 63 10 133 19 229 38 357
71 94 25 167 47 225 68 17 6 32 11 35 11 37 3 478 201 500 225 3 3 18 12 33
20 46 23 86 71 93 109 3 20 7 41 8 46 3 12 -24 93 -52 155 -46 100 -67 150
-109 260 -24 63 -48 124 -53 135 -13 29 -108 324 -116 360 -1 6 -12 46 -23 91
-12 45 -24 91 -26 103 -2 13 -7 32 -11 43 -3 11 -7 30 -9 41 -2 12 -6 33 -9
47 -6 30 -32 198 -40 255 -30 212 -26 579 8 763 3 17 8 47 11 65 3 17 15 68
26 112 12 44 22 87 24 95 8 36 60 162 102 250 41 85 197 358 212 370 3 3 19
25 35 50 39 60 182 254 269 363 l69 87 31 -47 c44 -70 120 -212 150 -283 8
-19 24 -55 35 -80 60 -134 130 -367 161 -540 26 -141 27 -142 37 -280 18 -228
-3 -537 -46 -710 -5 -19 -11 -46 -14 -60 -16 -82 -86 -296 -113 -345 -10 -16
-17 -32 -16 -35 2 -14 -68 -163 -79 -168 -5 -2 -8 -12 -8 -23 0 -10 -4 -19
-10 -19 -5 0 -10 -5 -10 -10 0 -9 -83 -145 -130 -214 -70 -102 -69 -97 -39
-167 22 -51 48 -67 86 -54 19 6 78 81 154 195 24 36 46 67 49 70 5 5 15 22 57
99 14 25 29 51 34 56 10 13 100 194 99 197 -1 2 10 26 24 53 65 131 179 491
201 635 2 14 7 37 9 51 3 14 8 41 10 60 3 19 5 34 6 34 1 0 3 14 4 30 2 17 7
64 12 105 17 148 10 511 -12 665 -3 17 -7 46 -9 65 -3 19 -8 46 -11 60 -3 14
-8 36 -10 50 -31 170 -110 417 -186 580 -17 36 -36 79 -44 96 -7 18 -43 82
-79 144 -36 62 -65 116 -65 119 0 4 12 20 28 37 15 16 43 50 62 74 19 25 39
50 45 55 6 6 29 33 50 60 22 28 42 52 45 55 18 17 84 129 96 162 15 44 5 84
-34 124 -53 56 -176 103 -280 108 -83 4 -119 -6 -157 -42 -33 -31 -176 -188
-187 -205 -3 -6 -33 16 -70 51 -34 33 -79 75 -98 92 -50 44 -250 195 -280 210
-14 7 -27 16 -30 20 -8 12 -180 109 -276 155 -114 55 -262 114 -374 149 -89
29 -334 86 -366 86 -11 0 -44 23 -74 52 -87 81 -190 144 -325 199 -11 4 -36
11 -55 15 -19 4 -42 9 -50 12 -34 8 -228 9 -265 1z m-665 -682 c0 -1 -5 -18
-10 -37 -20 -64 -25 -124 -25 -270 1 -199 33 -352 111 -515 27 -57 93 -175
104 -185 3 -3 23 -27 45 -55 56 -71 131 -142 195 -184 30 -20 57 -39 60 -42 3
-3 36 -20 74 -38 182 -86 363 -97 581 -38 6 2 20 9 33 15 12 7 22 9 22 5 0 -4
4 -3 8 2 4 6 25 19 47 30 115 57 245 187 331 330 46 76 102 229 123 336 31
164 24 390 -19 548 -5 19 -8 36 -6 38 6 6 114 -42 261 -117 142 -72 326 -187
405 -252 19 -16 40 -32 45 -36 31 -21 138 -113 188 -161 l58 -56 -74 -70
c-136 -130 -224 -209 -317 -285 -30 -25 -58 -49 -62 -55 -4 -6 -8 -6 -8 -1 0
6 -6 3 -12 -5 -21 -25 -173 -137 -236 -174 -9 -6 -42 -26 -72 -45 -31 -19 -64
-41 -75 -47 -30 -19 -244 -126 -290 -145 -79 -33 -276 -95 -330 -104 -11 -2
-33 -6 -50 -9 -188 -32 -448 -23 -633 21 -37 8 -76 17 -87 20 -24 4 -170 52
-205 67 -14 5 -29 11 -35 12 -16 4 -144 63 -240 112 -91 46 -296 171 -371 227
-23 17 -52 38 -64 46 -29 20 -109 83 -176 138 -95 78 -124 103 -168 143 -28
25 -78 70 -112 100 -100 89 -107 66 75 240 13 13 108 91 161 132 27 22 184
124 230 151 56 31 211 108 265 131 22 9 49 21 60 26 62 29 195 67 195 56z
m-1047 -1494 c201 -203 401 -405 444 -449 98 -102 192 -204 188 -204 -1 0 16
-20 39 -45 55 -60 59 -65 132 -161 72 -96 98 -147 111 -219 13 -69 6 -251 -12
-329 -3 -11 -7 -37 -9 -56 -2 -19 -7 -46 -10 -60 -3 -14 -8 -41 -11 -60 -2
-19 -6 -46 -9 -60 -7 -39 -17 -102 -21 -135 -2 -16 -7 -46 -10 -65 -4 -19 -8
-46 -10 -60 -1 -14 -6 -52 -10 -85 -14 -118 -24 -224 -31 -350 -5 -96 -5 -486
0 -570 10 -157 17 -232 21 -252 7 -29 -6 -29 -55 2 -22 14 -42 25 -44 25 -7 0
-130 73 -136 81 -3 3 -16 12 -30 19 -32 17 -157 109 -250 184 -170 138 -376
367 -511 568 -56 83 -159 254 -159 263 0 3 -18 42 -41 87 -22 46 -50 108 -61
138 -12 30 -25 66 -31 80 -6 14 -11 27 -12 30 -1 3 -4 12 -8 20 -11 30 -52
171 -62 215 -59 257 -79 419 -78 631 1 154 8 240 34 409 29 182 92 399 162
555 11 25 19 45 17 45 -1 0 16 34 38 77 43 82 52 98 56 98 1 0 167 -165 369
-367z"/>
</g>
</svg>
